HIERARCHY
ROOT Hips
{
	OFFSET 0.00 0.00 0.00
	CHANNELS 6 Xposition Yposition Zposition Xrotation Yrotation Zrotation
	JOINT RightUpLeg
	{
		OFFSET -3.76699 0.00000 0.00000
		CHANNELS 3 Xrotation Yrotation Zrotation
		JOINT RightLeg
		{
			OFFSET 0.00000 -18.01768 0.00000
			CHANNELS 3 Xrotation Yrotation Zrotation
			JOINT RightFoot
			{
				OFFSET 0.00000 -16.88108 0.00000
				CHANNELS 3 Xrotation Yrotation Zrotation
				JOINT RightToeBase
				{
					OFFSET 0.00000 -1.49359 5.57418
					CHANNELS 3 Xrotation Yrotation Zrotation
					End Site
					{
						OFFSET 0.00000 0.00000 2.95275
					}
				}
			}
		}
	}
	JOINT LeftUpLeg
	{
		OFFSET 3.76699 0.00000 0.00000
		CHANNELS 3 Xrotation Yrotation Zrotation
		JOINT LeftLeg
		{
			OFFSET 0.00000 -18.01768 0.00000
			CHANNELS 3 Xrotation Yrotation Zrotation
			JOINT LeftFoot
			{
				OFFSET 0.00000 -16.88108 0.00000
				CHANNELS 3 Xrotation Yrotation Zrotation
				JOINT LeftToeBase
				{
					OFFSET 0.00000 -1.49359 5.57418
					CHANNELS 3 Xrotation Yrotation Zrotation
					End Site
					{
						OFFSET 0.00000 0.00000 2.95275
					}
				}
			}
		}
	}
	JOINT Spine
	{
		OFFSET 0.00000 7.77970 0.00000
		CHANNELS 3 Xrotation Yrotation Zrotation
		JOINT RightShoulder
		{
			OFFSET 0.00000 10.94176 0.00000
			CHANNELS 3 Xrotation Yrotation Zrotation
			JOINT RightArm
			{
				OFFSET -7.70894 0.00000 0.00000
				CHANNELS 3 Xrotation Yrotation Zrotation
				JOINT RightForeArm
				{
					OFFSET -11.52135 0.00000 0.00000
					CHANNELS 3 Yrotation Zrotation Xrotation
					JOINT RightHand
					{
						OFFSET -10.17590 0.00000 0.00000
						CHANNELS 3 Xrotation Yrotation Zrotation
						End Site
						{
							OFFSET -3.93700 0.00000 0.00000
						}
						JOINT RightHandThumb1
						{
							OFFSET 0.00000 0.00000 0.00000
							CHANNELS 3 Xrotation Zrotation Yrotation
							End Site
							{
								OFFSET 0.00000 0.00000 3.93700
							}
						}
					}
				}
			}
		}
		JOINT LeftShoulder
		{
			OFFSET 0.00000 10.94176 0.00000
			CHANNELS 3 Xrotation Yrotation Zrotation
			JOINT LeftArm
			{
				OFFSET 7.70894 0.00000 0.00000
				CHANNELS 3 Xrotation Yrotation Zrotation
				JOINT LeftForeArm
				{
					OFFSET 11.52135 0.00000 0.00000
					CHANNELS 3 Yrotation Zrotation Xrotation
					JOINT LeftHand
					{
						OFFSET 10.17590 0.00000 0.00000
						CHANNELS 3 Xrotation Yrotation Zrotation
						End Site
						{
							OFFSET 3.93700 0.00000 0.00000
						}
						JOINT LeftHandThumb1
						{
							OFFSET 0.00000 0.00000 0.00000
							CHANNELS 3 Xrotation Zrotation Yrotation
							End Site
							{
								OFFSET 0.00000 0.00000 3.93700
							}
						}
					}
				}
			}
		}
		JOINT Head
		{
			OFFSET 0.00000 16.64604 0.00000
			CHANNELS 3 Xrotation Yrotation Zrotation
			End Site
			{
				OFFSET 0.00000 4.52755 0.00000
			}
		}
	}
}
MOTION
Frames: 9
Frame Time: 0.008333
 0.3659 37.1792 -1.2161 -1.8281 -4.8348 1.3201 9.2568 -9.1425 -4.2646 -5.8867 -0.0000 -0.0000 -5.9068 -22.1168 11.0995 13.6694 0.0000 -0.0000 9.3871 1.9486 3.9337 -3.8451 0.0000 -0.0000 -2.9913 17.4417 -15.7049 7.9515 -0.0000 0.0000 5.5913 -3.1908 -2.0687 3.1010 -6.2567 -26.5101 -31.0773 -10.9663 27.0571 16.8136 0.0000 -4.1761 -0.0381 0.7898 2.7612 32.8623 0.0000 -24.3270 21.8824 29.7609 15.1681 -67.5105 2.6059 -31.2530 -2.7319 0.0000 43.4503 1.5594 20.1828 -4.5116 33.1476 -0.0000 26.2537 -1.5462 13.0688 2.7338
 0.3523 37.1788 -1.2170 -1.8485 -4.8195 1.3155 9.2945 -9.1182 -4.2385 -5.9025 0.0000 0.0000 -5.9103 -22.1437 11.0712 13.6216 -0.0000 0.0000 9.3989 1.9350 3.9604 -3.8356 0.0000 0.0000 -2.9809 17.4450 -15.7360 7.9476 0.0000 -0.0000 5.6059 -3.2034 -2.0560 3.1774 -6.3239 -26.4867 -31.1640 -10.8969 27.0766 16.7922 0.0000 -4.1513 -0.0295 0.6403 2.6397 32.8623 0.0000 -24.3270 21.8681 29.7517 15.1652 -67.5005 2.5831 -31.2565 -2.6859 0.0000 43.4136 1.5519 20.1621 -4.4943 33.1476 -0.0000 26.2537 -1.5559 13.0578 2.7097
 0.3388 37.1782 -1.2166 -1.8805 -4.7982 1.3077 9.3459 -9.0983 -4.2088 -5.9158 -0.0000 0.0000 -5.9306 -22.1352 11.0825 13.8353 0.0000 0.0000 9.4253 1.9182 3.9883 -3.8261 -0.0000 0.0000 -2.9597 17.4534 -15.7817 7.8523 0.0000 -0.0000 5.6353 -3.2160 -2.0434 3.1856 -6.3300 -26.5001 -31.1476 -10.9191 27.1161 16.8235 0.0000 -4.0783 -0.0341 0.7245 2.6913 32.8623 0.0000 -24.3270 21.8923 29.7629 15.1530 -67.5670 2.6116 -31.2761 -2.6865 0.0000 43.4691 1.5443 20.1230 -4.4808 33.1476 -0.0000 26.2537 -1.5775 13.0427 2.6965
 0.3248 37.1774 -1.2173 -1.9082 -4.7750 1.2991 9.3875 -9.0873 -4.1781 -5.9188 0.0000 -0.0000 -5.9451 -22.1919 11.0502 13.8218 0.0000 0.0000 9.4422 1.9067 4.0198 -3.8195 0.0000 0.0000 -2.9645 17.4429 -15.7578 7.8830 -0.0000 0.0000 5.6515 -3.2443 -2.0269 3.2076 -6.3238 -26.5139 -31.1687 -10.9178 27.1497 16.7918 0.0000 -4.0505 -0.0348 0.7411 2.6885 32.8623 0.0000 -24.3270 21.9176 29.7685 15.1409 -67.5848 2.6084 -31.2841 -2.6611 0.0000 43.4604 1.5400 20.0878 -4.4758 33.1476 -0.0000 26.2537 -1.5623 13.0346 2.6727
 0.3101 37.1770 -1.2182 -1.9335 -4.7450 1.2923 9.4364 -9.0470 -4.1467 -5.9360 0.0000 0.0000 -5.9700 -22.2552 10.9815 13.6291 0.0000 -0.0000 9.4581 1.8770 4.0513 -3.8113 0.0000 -0.0000 -2.9608 17.4515 -15.7567 7.9203 -0.0000 0.0000 5.6714 -3.2624 -2.0161 3.1996 -6.3197 -26.5079 -31.1020 -10.8892 27.1624 16.7791 0.0000 -4.0590 -0.0346 0.7388 2.6794 32.8623 0.0000 -24.3270 21.9423 29.7789 15.1393 -67.5956 2.6046 -31.3148 -2.6624 0.0000 43.4774 1.4629 20.2111 -4.2276 33.1476 -0.0000 26.2537 -1.5775 13.0221 2.6790
 0.2965 37.1769 -1.2199 -1.9499 -4.7151 1.2895 9.4684 -9.0376 -4.1184 -5.9484 -0.0000 0.0000 -5.9903 -22.2942 10.9718 13.8540 -0.0000 0.0000 9.4583 1.8648 4.0772 -3.7974 -0.0000 0.0000 -2.9471 17.4490 -15.7696 7.9052 -0.0000 -0.0000 5.6867 -3.2845 -2.0023 3.2315 -6.3606 -26.4848 -31.1224 -10.8298 27.1637 16.7531 0.0000 -4.0936 -0.0353 0.7454 2.7077 32.8623 0.0000 -24.3270 21.9506 29.7871 15.1219 -67.5855 2.5779 -31.3303 -2.6606 0.0000 43.4722 1.4781 20.1676 -4.2801 33.1476 -0.0000 26.2537 -1.5951 13.0228 2.6543
 0.2836 37.1768 -1.2219 -1.9708 -4.6826 1.2864 9.5033 -9.0274 -4.0926 -5.9572 -0.0000 -0.0000 -5.9959 -22.3207 10.9411 13.6568 0.0000 -0.0000 9.4606 1.8524 4.1044 -3.7746 0.0000 -0.0000 -2.9288 17.4430 -15.8472 7.8539 0.0000 -0.0000 5.7001 -3.3114 -1.9818 3.2215 -6.3413 -26.4991 -31.0908 -10.8452 27.1745 16.7620 0.0000 -4.0934 -0.0336 0.7035 2.7309 32.8623 0.0000 -24.3270 21.9543 29.7628 15.1165 -67.5742 2.5910 -31.3193 -2.6710 0.0000 43.4503 1.5700 20.1147 -4.5567 33.1476 -0.0000 26.2537 -1.5830 13.0120 2.6106
 0.2705 37.1760 -1.2234 -2.0025 -4.6568 1.2809 9.5487 -9.0030 -4.0646 -5.9625 -0.0000 0.0000 -6.0236 -22.3625 10.8768 13.6412 -0.0000 -0.0000 9.4808 1.8450 4.1304 -3.7640 -0.0000 -0.0000 -2.9271 17.4309 -15.8533 7.8566 -0.0000 0.0000 5.7225 -3.3443 -1.9569 3.2353 -6.3076 -26.5105 -31.0302 -10.8544 27.1716 16.7855 0.0000 -4.1146 -0.0337 0.6959 2.7721 32.8623 0.0000 -24.3270 21.9911 29.7675 15.0934 -67.5749 2.5877 -31.3293 -2.6752 0.0000 43.4581 1.5822 20.1105 -4.5931 33.1476 -0.0000 26.2537 -1.5573 13.0197 2.5631
 0.2578 37.1758 -1.2267 -2.0166 -4.6280 1.2772 9.5632 -9.0062 -4.0387 -5.9511 0.0000 0.0000 -6.0377 -22.3796 10.8814 13.6203 -0.0000 0.0000 9.4748 1.8412 4.1564 -3.7469 -0.0000 -0.0000 -2.9384 17.4138 -15.8118 7.9197 -0.0000 -0.0000 5.7324 -3.3789 -1.9272 3.2386 -6.2958 -26.5291 -31.1074 -10.9068 27.1789 16.7994 0.0000 -4.0318 -0.0350 0.7081 2.8304 32.8623 0.0000 -24.3270 21.9712 29.7353 15.1047 -67.5565 2.6712 -31.3188 -2.7458 0.0000 43.5486 1.6124 20.1552 -4.6704 33.1476 -0.0000 26.2537 -1.5608 13.0664 2.5547
